<?xml version="1.0" encoding="UTF-8" standalone="no"?>
<!DOCTYPE svg PUBLIC "-//W3C//DTD SVG 1.1//EN"
 "http://www.w3.org/Graphics/SVG/1.1/DTD/svg11.dtd">
<!-- Generated by graphviz version 2.38.0 (20140413.2041)
 -->
<!-- Title: G Pages: 1 -->
<svg width="183pt" height="168pt"
 viewBox="0.00 0.00 183.00 168.00" xmlns="http://www.w3.org/2000/svg" xmlns:xlink="http://www.w3.org/1999/xlink">
<g id="graph0" class="graph" transform="scale(1 1) rotate(0) translate(4 164)">
<title>G</title>
<polygon fill="white" stroke="none" points="-4,4 -4,-164 179,-164 179,4 -4,4"/>
<g id="clust1" class="cluster"><title>cluster_Global</title>
<path fill="none" stroke="gray" d="M20,-8C20,-8 155,-8 155,-8 161,-8 167,-14 167,-20 167,-20 167,-140 167,-140 167,-146 161,-152 155,-152 155,-152 20,-152 20,-152 14,-152 8,-146 8,-140 8,-140 8,-20 8,-20 8,-14 14,-8 20,-8"/>
<text text-anchor="middle" x="87.5" y="-139.2" font-family="Times,serif" font-size="11.00" fill="gray">Global</text>
</g>
<g id="clust2" class="cluster"><title>cluster_\Noondaysun</title>
<path fill="none" stroke="gray" d="M28,-16C28,-16 147,-16 147,-16 153,-16 159,-22 159,-28 159,-28 159,-112 159,-112 159,-118 153,-124 147,-124 147,-124 28,-124 28,-124 22,-124 16,-118 16,-112 16,-112 16,-28 16,-28 16,-22 22,-16 28,-16"/>
<text text-anchor="middle" x="87.5" y="-111.2" font-family="Times,serif" font-size="11.00" fill="gray">Noondaysun</text>
</g>
<g id="clust3" class="cluster"><title>cluster_\Noondaysun\Dweetio</title>
<path fill="none" stroke="gray" d="M36,-24C36,-24 139,-24 139,-24 145,-24 151,-30 151,-36 151,-36 151,-84 151,-84 151,-90 145,-96 139,-96 139,-96 36,-96 36,-96 30,-96 24,-90 24,-84 24,-84 24,-36 24,-36 24,-30 30,-24 36,-24"/>
<text text-anchor="middle" x="87.5" y="-83.2" font-family="Times,serif" font-size="11.00" fill="gray">Dweetio</text>
</g>
<!-- \\Noondaysun\\Dweetio\\Dweetio_Client -->
<g id="node1" class="node"><title>\\Noondaysun\\Dweetio\\Dweetio_Client</title>
<polygon fill="none" stroke="black" points="143,-68 32,-68 32,-32 143,-32 143,-68"/>
<text text-anchor="middle" x="87.5" y="-47.2" font-family="Courier,monospace" font-size="11.00">Dweetio_Client</text>
</g>
</g>
</svg>
